<?xml version="1.0" encoding="UTF-8"?>
<svg id="Layer_1" xmlns="http://www.w3.org/2000/svg" viewBox="0 0 1544.6 497.99">
  <defs>
    <style>
      .cls-1 {
        fill: #93f;
      }
    </style>
  </defs>
  <path d="M1544.01.03c.59.92.74,2.53.44,4.83v123.58c0,.41-.33.75-.75.75h-84.89c-.44,0-.79.35-.79.78h0v232.32c0,.49-.24.73-.73.73h-120.68l-5.23-.08c-.57-.01-.87-.3-.9-.86l-.17-3.39-.05-228.61c0-.52-.26-.78-.78-.78l-81.59-.06c-1.91.11-2.75-.43-2.51-1.62l-.02-126.55c.02-.44.15-.79.39-1.06l298.26.03ZM1350.03,107.9c1.43-.44,1.97.68,1.6,3.36v229.64c0,.32.25.58.56.58h83.38c.53,0,.79-.26.79-.79.18-23.16.14-46.36-.12-69.57-.15-13.46-.21-23.84-.19-31.14.05-26.15.22-69.86.5-131.13,0-.62.32-.93.95-.93h84.92c.29,0,.53-.24.53-.53h0V22.11c0-.32-.26-.58-.59-.58h-255.14c-.29,0-.53.23-.53.51h0v85.26c0,.34.28.61.62.61h0l82.71-.02Z"/>
  <path d="M862.88,1.23c2.95-.23,4.16.21,3.64,1.31l-.19,72.31c0,.52-.26.78-.78.79l-19.01.16-1.31-.25.09-52.35c0-.35-.29-.64-.64-.64h-83.3c-.26,0-.47.21-.47.47h0v52.11c0,.29-.24.53-.53.53l-20.69-.03-.03-74.48,123.2.08Z"/>
  <path d="M909.7,1.17l293.34.06c.52,0,.95.43.95.95h0v126.61c0,.48-.24.72-.72.72l-176.72-.02c-.62-.02-.91-.68-.86-1.98l.16-17.64c.01-1.02.52-1.53,1.53-1.53h155.15c.18,0,.33-.15.33-.33h0V23.24c0-.45-.22-.67-.67-.67h-251.62c-.57,0-.86.29-.86.86v316.49c0,.34.17.51.51.51h83.5c.25,0,.45-.2.45-.45h0v-124.85c0-.6.49-1.09,1.09-1.09h103.42c.53,0,.79-.26.79-.79l.03-50.84c.17-.07.33-.14.5-.2l19.79-.03c.86-.21,1.18.3.97,1.51l-.05,70.86c0,.33-.26.59-.59.59h-104.26c-.34,0-.62.28-.62.62h0v125.18c0,.55-.28.83-.84.83h-125.43c-.3,0-.54-.24-.54-.53h0s.02-359.46.02-359.46c.16-.49.58-.69,1.26-.61Z"/>
  <path class="cls-1" d="M696.99,3.49c.43.25.61.58.54,1v360.78c0,.71-.35,1.06-1.06,1.06h-124.45c-.68,0-1.03-.34-1.03-1.03v-123.67c0-.87-.22-.93-.67-.19-1.35,2.2-36.49,68.44-38.81,72.87-1.04,1.99-1.56,4.09-1.56,6.29,0,40.84.02,82.84.05,126,0,.4-.32.72-.72.72h-127.83c-.34,0-.62-.27-.62-.61h0V87.09c0-.64.33-.97.98-.97l125.82-.02c1.32-.23,1.21,1.75,1.21,2.13-.04,48.27-.04,96.35,0,144.25,0,1.69.4,1.79,1.2.3,1.72-3.25,41-78.97,40.99-81.28-.04-9.69-.05-58.64-.02-146.85,0-.74.37-1.11,1.12-1.11l124.84-.06Z"/>
  <path d="M866.56,361c0,.43-.35.78-.78.78h-125.26c-.43,0-.78-.35-.78-.78V109.14c0-.43.35-.78.78-.78h125.26c.43,0,.78.35.78.78v251.85ZM845.22,130.22c0-.41-.33-.75-.75-.75h-82.91c-.41,0-.75.33-.75.75v209.45c0,.41.33.75.75.75h82.91c.41,0,.75-.33.75-.75v-209.45Z"/>
  <g>
    <path class="cls-1" d="M784.04,473.21l37.59-84.68h26.01l6.9,84.68h-20.46l-.62-15.41h-22.56l-6.29,15.41h-20.58ZM817.07,441.91h15.9l-.49-21.94c0-.99-.02-2.05-.06-3.21-.04-1.15-.1-2.36-.18-3.64-.08-1.27-.14-2.51-.18-3.7-.04-1.19-.06-2.32-.06-3.39h-.86c-.49,1.4-1.09,2.96-1.79,4.68-.7,1.73-1.36,3.39-1.97,4.99-.62,1.6-1.17,3.02-1.66,4.25l-8.63,21.94Z"/>
    <path class="cls-1" d="M876.72,474.69c-3.12,0-5.75-.49-7.89-1.48-2.14-.99-3.76-2.42-4.87-4.31-1.11-1.89-1.66-4.23-1.66-7.03,0-1.07.08-2.18.25-3.33.16-1.15.33-2.34.49-3.58l8.26-46.71h17.87l-7.52,42.65c-.08.58-.17,1.11-.25,1.6-.08.49-.12.99-.12,1.48,0,.99.16,1.85.49,2.59.33.74.86,1.32,1.6,1.73.74.41,1.6.62,2.59.62,1.31,0,2.53-.33,3.64-.99,1.11-.66,2.09-1.56,2.96-2.71.86-1.15,1.6-2.57,2.22-4.25.62-1.68,1.13-3.51,1.54-5.48l6.53-37.22h17.75l-11.34,64.96h-14.91v-8.26h-.62c-1.48,2.14-3.08,3.92-4.81,5.36-1.72,1.44-3.59,2.53-5.61,3.27-2.01.74-4.21,1.11-6.59,1.11Z"/>
    <path class="cls-1" d="M938.85,474.69c-2.96,0-5.4-.41-7.33-1.23-1.93-.82-3.37-2.05-4.31-3.7-.95-1.64-1.42-3.7-1.42-6.16,0-.74.06-1.58.18-2.53.12-.94.31-2.03.55-3.27l6.16-35.5h-6.29l2.46-14.05h6.9l6.66-19.23h13.93l-3.33,19.23h9l-2.59,14.05h-8.88l-5.67,31.92c-.08.49-.17,1.03-.25,1.6-.08.58-.12.99-.12,1.23,0,1.07.27,1.89.8,2.46.53.58,1.42.86,2.65.86h4.81l-2.09,12.33c-1.32.41-2.67.76-4.07,1.05-1.4.29-2.75.51-4.07.68-1.32.16-2.55.25-3.7.25Z"/>
    <path class="cls-1" d="M984.33,474.69c-5.1,0-9.39-.8-12.88-2.4-3.49-1.6-6.12-4.05-7.89-7.33-1.77-3.29-2.65-7.48-2.65-12.57,0-2.55.16-5.24.49-8.07.33-2.83.86-5.69,1.6-8.57,1.31-6.41,3.29-11.75,5.92-16.02,2.63-4.27,5.98-7.5,10.05-9.67,4.07-2.18,8.77-3.27,14.11-3.27s9.53.8,13.07,2.4c3.53,1.6,6.18,4.05,7.95,7.33,1.77,3.29,2.65,7.52,2.65,12.7,0,3.29-.31,6.62-.92,9.98-.62,3.37-1.5,6.66-2.65,9.86-1.48,5.59-3.53,10.29-6.16,14.11-2.63,3.82-5.81,6.7-9.55,8.63-3.74,1.93-8.12,2.9-13.13,2.9ZM985.19,460.64c2.05,0,3.8-.51,5.24-1.54,1.44-1.03,2.65-2.67,3.64-4.93.99-2.26,1.81-5.2,2.46-8.81.74-4.11,1.27-7.25,1.6-9.43.33-2.18.53-3.8.62-4.87.08-1.07.12-1.93.12-2.59,0-1.81-.23-3.27-.68-4.38-.45-1.11-1.17-1.93-2.16-2.46-.99-.53-2.26-.8-3.82-.8-2.05,0-3.78.51-5.18,1.54-1.4,1.03-2.59,2.65-3.57,4.87-.99,2.22-1.81,5.22-2.46,9-.66,4.11-1.17,7.27-1.54,9.49-.37,2.22-.62,3.84-.74,4.87-.12,1.03-.18,1.87-.18,2.53,0,1.73.25,3.14.74,4.25s1.23,1.93,2.22,2.46c.99.54,2.22.8,3.7.8Z"/>
  </g>
  <g>
    <path class="cls-1" d="M1039.69,473.21l14.91-84.68h27.73c9.37,0,16.33,2.16,20.89,6.47,4.56,4.31,6.84,11.07,6.84,20.28,0,2.46-.12,5.1-.37,7.89-.25,2.79-.66,5.75-1.23,8.88-1.64,9.29-4.07,16.97-7.27,23.05-3.21,6.08-7.36,10.62-12.45,13.62-5.1,3-11.34,4.5-18.73,4.5h-30.32ZM1062.49,456.57h7.76c2.3,0,4.35-.37,6.16-1.11,1.81-.74,3.41-1.91,4.81-3.51,1.4-1.6,2.57-3.7,3.51-6.29.94-2.59,1.75-5.69,2.4-9.31.82-4.52,1.44-8.03,1.85-10.54.41-2.51.68-4.44.8-5.79s.18-2.44.18-3.27c0-2.71-.39-4.93-1.17-6.66-.78-1.73-1.93-3-3.45-3.82-1.52-.82-3.51-1.23-5.98-1.23h-7.89l-9,51.52Z"/>
    <path class="cls-1" d="M1136.69,474.69c-5.01,0-9.24-.76-12.7-2.28s-6.08-3.88-7.89-7.09c-1.81-3.2-2.71-7.35-2.71-12.45,0-2.05.12-4.21.37-6.47.25-2.26.57-4.62.99-7.09,1.4-7.64,3.45-13.84,6.16-18.61,2.71-4.76,6.14-8.28,10.29-10.54,4.15-2.26,9.02-3.39,14.61-3.39,4.85,0,8.98.7,12.39,2.1,3.41,1.4,5.98,3.6,7.7,6.59,1.73,3,2.59,6.88,2.59,11.65,0,1.81-.12,4.01-.37,6.59-.25,2.59-.78,6.02-1.6,10.29h-34.26c-.41,2.06-.72,3.9-.92,5.55-.21,1.64-.31,3.04-.31,4.19,0,1.73.22,3.14.68,4.25.45,1.11,1.17,1.95,2.16,2.53.99.58,2.26.86,3.82.86,1.4,0,2.63-.23,3.7-.68,1.07-.45,1.99-1.13,2.77-2.03.78-.9,1.46-2.07,2.03-3.51.57-1.44,1.03-3.14,1.36-5.12h17.75c-.74,4.19-1.87,7.83-3.39,10.91-1.52,3.08-3.47,5.63-5.85,7.64-2.38,2.01-5.18,3.53-8.38,4.56-3.2,1.03-6.86,1.54-10.97,1.54ZM1133.98,434.14h15.9c.33-1.64.55-3.1.68-4.38.12-1.27.19-2.36.19-3.27,0-1.48-.21-2.69-.62-3.64-.41-.94-1.05-1.64-1.91-2.1-.86-.45-1.95-.68-3.27-.68-1.97,0-3.66.51-5.05,1.54-1.4,1.03-2.57,2.57-3.51,4.62-.95,2.05-1.75,4.68-2.4,7.89Z"/>
    <path class="cls-1" d="M1188.7,474.69c-2.96,0-5.4-.41-7.33-1.23-1.93-.82-3.37-2.05-4.31-3.7-.95-1.64-1.42-3.7-1.42-6.16,0-.74.06-1.58.18-2.53.12-.94.31-2.03.55-3.27l6.16-35.5h-6.29l2.46-14.05h6.9l6.66-19.23h13.93l-3.33,19.23h9l-2.59,14.05h-8.88l-5.67,31.92c-.08.49-.17,1.03-.25,1.6-.08.58-.12.99-.12,1.23,0,1.07.27,1.89.8,2.46.53.58,1.42.86,2.65.86h4.81l-2.09,12.33c-1.32.41-2.67.76-4.07,1.05-1.4.29-2.75.51-4.07.68-1.32.16-2.55.25-3.7.25Z"/>
    <path class="cls-1" d="M1208.42,473.21l11.46-64.96h17.75l-11.46,64.96h-17.75ZM1221.24,399.14l2.59-15.16h17.87l-2.59,15.16h-17.87Z"/>
    <path class="cls-1" d="M1256,474.69c-3.53,0-6.53-.76-9-2.28s-4.31-3.76-5.55-6.72c-1.23-2.96-1.85-6.61-1.85-10.97,0-2.22.12-4.58.37-7.09.25-2.51.62-5.2,1.11-8.07,1.23-7.07,2.94-13.04,5.12-17.93,2.18-4.89,4.87-8.59,8.07-11.09,3.2-2.51,6.98-3.76,11.34-3.76,2.63,0,4.87.37,6.72,1.11s3.37,1.79,4.56,3.14c1.19,1.36,2.2,3.02,3.02,4.99h.74l4.19-7.76h13.43l-2.96,16.27c-.33,2.05-.76,4.5-1.29,7.33-.54,2.83-1.07,5.71-1.6,8.63-.54,2.92-1.03,5.67-1.48,8.26-.45,2.59-.8,4.75-1.05,6.47-.25,1.73-.37,2.75-.37,3.08,0,.99.25,1.73.74,2.22s1.15.74,1.97.74h3.33l-1.97,11.46c-1.32.49-2.79.94-4.44,1.36-1.64.41-3.29.62-4.93.62-2.22,0-4.19-.45-5.92-1.36s-2.96-2.38-3.7-4.44c-.25-.57-.47-1.17-.68-1.79-.21-.62-.35-1.33-.43-2.16l-.62-.12c-1.81,2.79-4.13,5.14-6.96,7.03-2.83,1.89-6.14,2.83-9.92,2.83ZM1263.89,458.91c1.31,0,2.51-.31,3.58-.92,1.07-.62,2.05-1.56,2.96-2.83.9-1.27,1.66-2.83,2.28-4.68.62-1.85,1.17-3.96,1.66-6.35.57-3.53,1.03-6.24,1.36-8.13.33-1.89.53-3.31.62-4.25.08-.94.12-1.7.12-2.28,0-1.64-.21-3.02-.62-4.13-.41-1.11-1.07-1.95-1.97-2.53-.91-.57-2.05-.86-3.45-.86-1.89,0-3.49.51-4.81,1.54-1.32,1.03-2.4,2.61-3.27,4.75-.86,2.14-1.62,4.85-2.28,8.13-.66,3.62-1.13,6.41-1.42,8.38-.29,1.97-.49,3.43-.62,4.38-.12.95-.18,1.79-.18,2.53,0,2.46.47,4.29,1.42,5.48.94,1.19,2.48,1.79,4.62,1.79Z"/>
    <path class="cls-1" d="M1298.89,473.21l15.65-89.24h17.87l-15.78,89.24h-17.75Z"/>
    <path class="cls-1" d="M1328.23,473.21l11.46-64.96h17.75l-11.46,64.96h-17.75ZM1341.05,399.14l2.59-15.16h17.87l-2.59,15.16h-17.87Z"/>
    <path class="cls-1" d="M1357.56,473.21l11.34-64.96h15.04v8.13h.62c1.4-2.05,2.96-3.8,4.68-5.24,1.73-1.44,3.62-2.53,5.67-3.27,2.05-.74,4.23-1.11,6.53-1.11,3.21,0,5.87.47,8.01,1.42,2.14.95,3.74,2.38,4.81,4.31,1.07,1.93,1.6,4.29,1.6,7.09,0,1.07-.08,2.16-.25,3.27-.17,1.11-.33,2.28-.49,3.51l-8.26,46.84h-17.87l7.52-42.65c.16-.57.27-1.11.31-1.6.04-.49.06-.99.06-1.48,0-1.07-.17-1.95-.49-2.65-.33-.7-.82-1.25-1.48-1.66-.66-.41-1.56-.62-2.71-.62-1.23,0-2.42.33-3.57.99-1.15.66-2.16,1.56-3.02,2.71-.86,1.15-1.6,2.55-2.22,4.19-.62,1.64-1.13,3.49-1.54,5.55l-6.53,37.22h-17.75Z"/>
    <path class="cls-1" d="M1437.19,497.99c-4.36,0-8.12-.55-11.28-1.66-3.16-1.11-5.59-2.79-7.27-5.05-1.68-2.26-2.53-5.03-2.53-8.32,0-.58.06-1.46.18-2.65.12-1.19.39-2.77.8-4.75h16.64c-.08.57-.17,1.15-.25,1.73-.08.57-.12,1.07-.12,1.48,0,1.07.2,1.99.62,2.77.41.78,1.05,1.36,1.91,1.73.86.37,1.91.55,3.14.55,1.97,0,3.62-.49,4.93-1.48,1.31-.99,2.4-2.42,3.27-4.31.86-1.89,1.54-4.19,2.03-6.9.25-1.48.49-2.98.74-4.5.25-1.52.53-2.98.86-4.38h-.74c-1.15,1.73-2.51,3.23-4.07,4.5-1.56,1.27-3.29,2.26-5.18,2.96-1.89.7-3.94,1.05-6.16,1.05-3.37,0-6.18-.66-8.44-1.97-2.26-1.31-3.96-3.35-5.11-6.1-1.15-2.75-1.73-6.22-1.73-10.42,0-1.89.12-3.96.37-6.22.25-2.26.62-4.75,1.11-7.46,1.89-10.85,4.87-18.86,8.94-24.04s9.39-7.76,15.96-7.76c3.94,0,7.07.86,9.37,2.59,2.3,1.73,3.9,4.03,4.81,6.9h.62l2.71-8.01h14.67l-10.85,61.38c-1.23,7.23-3.19,12.9-5.85,17.01-2.67,4.11-6,7.03-9.98,8.75-3.99,1.73-8.69,2.59-14.11,2.59ZM1444.09,454.97c1.4,0,2.65-.31,3.76-.92s2.09-1.52,2.96-2.71c.86-1.19,1.6-2.67,2.22-4.44.62-1.77,1.09-3.84,1.42-6.22.49-2.47.84-4.42,1.05-5.85.2-1.44.35-2.59.43-3.45.08-.86.12-1.58.12-2.16,0-1.56-.23-2.88-.68-3.94-.45-1.07-1.11-1.89-1.97-2.46-.86-.57-1.99-.86-3.39-.86-1.81,0-3.39.51-4.75,1.54-1.36,1.03-2.46,2.55-3.33,4.56-.86,2.01-1.58,4.62-2.16,7.83-.41,2.63-.76,4.71-1.05,6.22-.29,1.52-.45,2.69-.49,3.51-.04.82-.06,1.56-.06,2.22,0,1.56.2,2.88.62,3.94.41,1.07,1.07,1.87,1.97,2.4.9.54,2.01.8,3.33.8Z"/>
  </g>
  <path d="M228.66,448.21H0v-126.34h221.96v21H21v84.34h207.66c26.96,0,52.84-7.19,74.84-20.78,9.82-6.07,14.08-10.52,15.92-13.19,13.22-19.11,20.21-42.07,20.21-66.4v-46.25H0v-53.84c0-38.29,14.09-74.4,39.66-101.66,5.89-6.28,11.58-11.15,16.93-14.47,22.86-14.23,49.4-21.75,76.76-21.75h227.28v126.86h-222.26v-21h201.26v-84.86h-206.28c-23.43,0-46.14,6.42-65.66,18.58-3.8,2.36-8.07,6.07-12.71,11.01-21.91,23.36-33.98,54.36-33.98,87.3v32.84h339.63v67.25c0,28.62-8.28,55.71-23.94,78.35-4.4,6.36-11.65,12.61-22.15,19.1-25.32,15.65-55.01,23.92-85.88,23.92Z"/>
</svg>