<svg width="1546" height="498" viewBox="0 0 1546 498" fill="none" xmlns="http://www.w3.org/2000/svg">
<path d="M1544.51 0.0300098C1545.1 0.95001 1545.25 2.56001 1544.95 4.86001V128.44C1544.95 128.85 1544.62 129.19 1544.2 129.19H1459.31C1458.87 129.19 1458.52 129.54 1458.52 129.97V362.29C1458.52 362.78 1458.28 363.02 1457.79 363.02H1337.11L1331.88 362.94C1331.31 362.93 1331.01 362.64 1330.98 362.08L1330.81 358.69L1330.76 130.08C1330.76 129.56 1330.5 129.3 1329.98 129.3L1248.39 129.24C1246.48 129.35 1245.64 128.81 1245.88 127.62L1245.86 1.07001C1245.88 0.63001 1246.01 0.28001 1246.25 0.0100098L1544.51 0.0400098V0.0300098ZM1350.53 107.9C1351.96 107.46 1352.5 108.58 1352.13 111.26V340.9C1352.13 341.22 1352.38 341.48 1352.69 341.48H1436.07C1436.6 341.48 1436.86 341.22 1436.86 340.69C1437.04 317.53 1437 294.33 1436.74 271.12C1436.59 257.66 1436.53 247.28 1436.55 239.98C1436.6 213.83 1436.77 170.12 1437.05 108.85C1437.05 108.23 1437.37 107.92 1438 107.92H1522.92C1523.21 107.92 1523.45 107.68 1523.45 107.39V22.11C1523.45 21.79 1523.19 21.53 1522.86 21.53H1267.72C1267.43 21.53 1267.19 21.76 1267.19 22.04V107.3C1267.19 107.64 1267.47 107.91 1267.81 107.91L1350.52 107.89L1350.53 107.9Z" fill="white"/>
<path d="M863.38 1.22991C866.33 0.999912 867.54 1.43991 867.02 2.53991L866.83 74.8499C866.83 75.3699 866.57 75.6299 866.05 75.6399L847.04 75.7999L845.73 75.5499L845.82 23.1999C845.82 22.8499 845.53 22.5599 845.18 22.5599H761.88C761.62 22.5599 761.41 22.7699 761.41 23.0299V75.1399C761.41 75.4299 761.17 75.6699 760.88 75.6699L740.19 75.6399L740.16 1.15991L863.36 1.23991L863.38 1.22991Z" fill="white"/>
<path d="M910.2 1.16995L1203.54 1.22995C1204.06 1.22995 1204.49 1.65995 1204.49 2.17995V128.79C1204.49 129.27 1204.25 129.51 1203.77 129.51L1027.05 129.49C1026.43 129.47 1026.14 128.81 1026.19 127.51L1026.35 109.87C1026.36 108.85 1026.87 108.34 1027.88 108.34H1183.03C1183.21 108.34 1183.36 108.19 1183.36 108.01V23.2399C1183.36 22.7899 1183.14 22.5699 1182.69 22.5699H931.07C930.5 22.5699 930.21 22.8599 930.21 23.4299V339.92C930.21 340.26 930.38 340.43 930.72 340.43H1014.22C1014.47 340.43 1014.67 340.23 1014.67 339.98V215.13C1014.67 214.53 1015.16 214.04 1015.76 214.04H1119.18C1119.71 214.04 1119.97 213.78 1119.97 213.25L1120 162.41C1120.17 162.34 1120.33 162.27 1120.5 162.21L1140.29 162.18C1141.15 161.97 1141.47 162.48 1141.26 163.69L1141.21 234.55C1141.21 234.88 1140.95 235.14 1140.62 235.14H1036.36C1036.02 235.14 1035.74 235.42 1035.74 235.76V360.94C1035.74 361.49 1035.46 361.77 1034.9 361.77H909.47C909.17 361.77 908.93 361.53 908.93 361.24L908.95 1.77995C909.11 1.28995 909.53 1.08995 910.21 1.16995H910.2Z" fill="white"/>
<path d="M697.49 3.48998C697.92 3.73998 698.1 4.06998 698.03 4.48998V365.27C698.03 365.98 697.68 366.33 696.97 366.33H572.52C571.84 366.33 571.49 365.99 571.49 365.3V241.63C571.49 240.76 571.27 240.7 570.82 241.44C569.47 243.64 534.33 309.88 532.01 314.31C530.97 316.3 530.45 318.4 530.45 320.6C530.45 361.44 530.47 403.44 530.5 446.6C530.5 447 530.18 447.32 529.78 447.32H401.95C401.61 447.32 401.33 447.05 401.33 446.71V87.09C401.33 86.45 401.66 86.12 402.31 86.12L528.13 86.1C529.45 85.87 529.34 87.85 529.34 88.23C529.3 136.5 529.3 184.58 529.34 232.48C529.34 234.17 529.74 234.27 530.54 232.78C532.26 229.53 571.54 153.81 571.53 151.5C571.49 141.81 571.48 92.86 571.51 4.64998C571.51 3.90998 571.88 3.53998 572.63 3.53998L697.47 3.47998L697.49 3.48998Z" fill="#9933FF"/>
<path d="M867.06 361C867.06 361.43 866.71 361.78 866.28 361.78H741.02C740.59 361.78 740.24 361.43 740.24 361V109.14C740.24 108.71 740.59 108.36 741.02 108.36H866.28C866.71 108.36 867.06 108.71 867.06 109.14V360.99V361ZM845.72 130.22C845.72 129.81 845.39 129.47 844.97 129.47H762.06C761.65 129.47 761.31 129.8 761.31 130.22V339.67C761.31 340.08 761.64 340.42 762.06 340.42H844.97C845.38 340.42 845.72 340.09 845.72 339.67V130.22Z" fill="white"/>
<path d="M784.54 473.21L822.13 388.53H848.14L855.04 473.21H834.58L833.96 457.8H811.4L805.11 473.21H784.53H784.54ZM817.57 441.91H833.47L832.98 419.97C832.98 418.98 832.96 417.92 832.92 416.76C832.88 415.61 832.82 414.4 832.74 413.12C832.66 411.85 832.6 410.61 832.56 409.42C832.52 408.23 832.5 407.1 832.5 406.03H831.64C831.15 407.43 830.55 408.99 829.85 410.71C829.15 412.44 828.49 414.1 827.88 415.7C827.26 417.3 826.71 418.72 826.22 419.95L817.59 441.89L817.57 441.91Z" fill="#9933FF"/>
<path d="M877.22 474.69C874.1 474.69 871.47 474.2 869.33 473.21C867.19 472.22 865.57 470.79 864.46 468.9C863.35 467.01 862.8 464.67 862.8 461.87C862.8 460.8 862.88 459.69 863.05 458.54C863.21 457.39 863.38 456.2 863.54 454.96L871.8 408.25H889.67L882.15 450.9C882.07 451.48 881.98 452.01 881.9 452.5C881.82 452.99 881.78 453.49 881.78 453.98C881.78 454.97 881.94 455.83 882.27 456.57C882.6 457.31 883.13 457.89 883.87 458.3C884.61 458.71 885.47 458.92 886.46 458.92C887.77 458.92 888.99 458.59 890.1 457.93C891.21 457.27 892.19 456.37 893.06 455.22C893.92 454.07 894.66 452.65 895.28 450.97C895.9 449.29 896.41 447.46 896.82 445.49L903.35 408.27H921.1L909.76 473.23H894.85V464.97H894.23C892.75 467.11 891.15 468.89 889.42 470.33C887.7 471.77 885.83 472.86 883.81 473.6C881.8 474.34 879.6 474.71 877.22 474.71V474.69Z" fill="#9933FF"/>
<path d="M939.35 474.69C936.39 474.69 933.95 474.28 932.02 473.46C930.09 472.64 928.65 471.41 927.71 469.76C926.76 468.12 926.29 466.06 926.29 463.6C926.29 462.86 926.35 462.02 926.47 461.07C926.59 460.13 926.78 459.04 927.02 457.8L933.18 422.3H926.89L929.35 408.25H936.25L942.91 389.02H956.84L953.51 408.25H962.51L959.92 422.3H951.04L945.37 454.22C945.29 454.71 945.2 455.25 945.12 455.82C945.04 456.4 945 456.81 945 457.05C945 458.12 945.27 458.94 945.8 459.51C946.33 460.09 947.22 460.37 948.45 460.37H953.26L951.17 472.7C949.85 473.11 948.5 473.46 947.1 473.75C945.7 474.04 944.35 474.26 943.03 474.43C941.71 474.59 940.48 474.68 939.33 474.68L939.35 474.69Z" fill="#9933FF"/>
<path d="M984.83 474.69C979.73 474.69 975.44 473.89 971.95 472.29C968.46 470.69 965.83 468.24 964.06 464.96C962.29 461.67 961.41 457.48 961.41 452.39C961.41 449.84 961.57 447.15 961.9 444.32C962.23 441.49 962.76 438.63 963.5 435.75C964.81 429.34 966.79 424 969.42 419.73C972.05 415.46 975.4 412.23 979.47 410.06C983.54 407.88 988.24 406.79 993.58 406.79C998.92 406.79 1003.11 407.59 1006.65 409.19C1010.18 410.79 1012.83 413.24 1014.6 416.52C1016.37 419.81 1017.25 424.04 1017.25 429.22C1017.25 432.51 1016.94 435.84 1016.33 439.2C1015.71 442.57 1014.83 445.86 1013.68 449.06C1012.2 454.65 1010.15 459.35 1007.52 463.17C1004.89 466.99 1001.71 469.87 997.97 471.8C994.23 473.73 989.85 474.7 984.84 474.7L984.83 474.69ZM985.69 460.64C987.74 460.64 989.49 460.13 990.93 459.1C992.37 458.07 993.58 456.43 994.57 454.17C995.56 451.91 996.38 448.97 997.03 445.36C997.77 441.25 998.3 438.11 998.63 435.93C998.96 433.75 999.16 432.13 999.25 431.06C999.33 429.99 999.37 429.13 999.37 428.47C999.37 426.66 999.14 425.2 998.69 424.09C998.24 422.98 997.52 422.16 996.53 421.63C995.54 421.1 994.27 420.83 992.71 420.83C990.66 420.83 988.93 421.34 987.53 422.37C986.13 423.4 984.94 425.02 983.96 427.24C982.97 429.46 982.15 432.46 981.5 436.24C980.84 440.35 980.33 443.51 979.96 445.73C979.59 447.95 979.34 449.57 979.22 450.6C979.1 451.63 979.04 452.47 979.04 453.13C979.04 454.86 979.29 456.27 979.78 457.38C980.27 458.49 981.01 459.31 982 459.84C982.99 460.38 984.22 460.64 985.7 460.64H985.69Z" fill="#9933FF"/>
<path d="M1040.19 473.21L1055.1 388.53H1082.83C1092.2 388.53 1099.16 390.69 1103.72 395C1108.28 399.31 1110.56 406.07 1110.56 415.28C1110.56 417.74 1110.44 420.38 1110.19 423.17C1109.94 425.96 1109.53 428.92 1108.96 432.05C1107.32 441.34 1104.89 449.02 1101.69 455.1C1098.48 461.18 1094.33 465.72 1089.24 468.72C1084.14 471.72 1077.9 473.22 1070.51 473.22H1040.19V473.21ZM1062.99 456.57H1070.75C1073.05 456.57 1075.1 456.2 1076.91 455.46C1078.72 454.72 1080.32 453.55 1081.72 451.95C1083.12 450.35 1084.29 448.25 1085.23 445.66C1086.17 443.07 1086.98 439.97 1087.63 436.35C1088.45 431.83 1089.07 428.32 1089.48 425.81C1089.89 423.3 1090.16 421.37 1090.28 420.02C1090.4 418.67 1090.46 417.58 1090.46 416.75C1090.46 414.04 1090.07 411.82 1089.29 410.09C1088.51 408.36 1087.36 407.09 1085.84 406.27C1084.32 405.45 1082.33 405.04 1079.86 405.04H1071.97L1062.97 456.56L1062.99 456.57Z" fill="#9933FF"/>
<path d="M1137.19 474.69C1132.18 474.69 1127.95 473.93 1124.49 472.41C1121.03 470.89 1118.41 468.53 1116.6 465.32C1114.79 462.12 1113.89 457.97 1113.89 452.87C1113.89 450.82 1114.01 448.66 1114.26 446.4C1114.51 444.14 1114.83 441.78 1115.25 439.31C1116.65 431.67 1118.7 425.47 1121.41 420.7C1124.12 415.94 1127.55 412.42 1131.7 410.16C1135.85 407.9 1140.72 406.77 1146.31 406.77C1151.16 406.77 1155.29 407.47 1158.7 408.87C1162.11 410.27 1164.68 412.47 1166.4 415.46C1168.13 418.46 1168.99 422.34 1168.99 427.11C1168.99 428.92 1168.87 431.12 1168.62 433.7C1168.37 436.29 1167.84 439.72 1167.02 443.99H1132.76C1132.35 446.05 1132.04 447.89 1131.84 449.54C1131.63 451.18 1131.53 452.58 1131.53 453.73C1131.53 455.46 1131.75 456.87 1132.21 457.98C1132.66 459.09 1133.38 459.93 1134.37 460.51C1135.36 461.09 1136.63 461.37 1138.19 461.37C1139.59 461.37 1140.82 461.14 1141.89 460.69C1142.96 460.24 1143.88 459.56 1144.66 458.66C1145.44 457.76 1146.12 456.59 1146.69 455.15C1147.26 453.71 1147.72 452.01 1148.05 450.03H1165.8C1165.06 454.22 1163.93 457.86 1162.41 460.94C1160.89 464.02 1158.94 466.57 1156.56 468.58C1154.18 470.59 1151.38 472.11 1148.18 473.14C1144.98 474.17 1141.32 474.68 1137.21 474.68L1137.19 474.69ZM1134.48 434.14H1150.38C1150.71 432.5 1150.93 431.04 1151.06 429.76C1151.18 428.49 1151.25 427.4 1151.25 426.49C1151.25 425.01 1151.04 423.8 1150.63 422.85C1150.22 421.91 1149.58 421.21 1148.72 420.75C1147.86 420.3 1146.77 420.07 1145.45 420.07C1143.48 420.07 1141.79 420.58 1140.4 421.61C1139 422.64 1137.83 424.18 1136.89 426.23C1135.94 428.28 1135.14 430.91 1134.49 434.12L1134.48 434.14Z" fill="#9933FF"/>
<path d="M1189.2 474.69C1186.24 474.69 1183.8 474.28 1181.87 473.46C1179.94 472.64 1178.5 471.41 1177.56 469.76C1176.61 468.12 1176.14 466.06 1176.14 463.6C1176.14 462.86 1176.2 462.02 1176.32 461.07C1176.44 460.13 1176.63 459.04 1176.87 457.8L1183.03 422.3H1176.74L1179.2 408.25H1186.1L1192.76 389.02H1206.69L1203.36 408.25H1212.36L1209.77 422.3H1200.89L1195.22 454.22C1195.14 454.71 1195.05 455.25 1194.97 455.82C1194.89 456.4 1194.85 456.81 1194.85 457.05C1194.85 458.12 1195.12 458.94 1195.65 459.51C1196.18 460.09 1197.07 460.37 1198.3 460.37H1203.11L1201.02 472.7C1199.7 473.11 1198.35 473.46 1196.95 473.75C1195.55 474.04 1194.2 474.26 1192.88 474.43C1191.56 474.59 1190.33 474.68 1189.18 474.68L1189.2 474.69Z" fill="#9933FF"/>
<path d="M1208.92 473.21L1220.38 408.25H1238.13L1226.67 473.21H1208.92ZM1221.74 399.14L1224.33 383.98H1242.2L1239.61 399.14H1221.74Z" fill="#9933FF"/>
<path d="M1256.5 474.69C1252.97 474.69 1249.97 473.93 1247.5 472.41C1245.03 470.89 1243.19 468.65 1241.95 465.69C1240.72 462.73 1240.1 459.08 1240.1 454.72C1240.1 452.5 1240.22 450.14 1240.47 447.63C1240.72 445.12 1241.09 442.43 1241.58 439.56C1242.81 432.49 1244.52 426.52 1246.7 421.63C1248.88 416.74 1251.57 413.04 1254.77 410.54C1257.97 408.03 1261.75 406.78 1266.11 406.78C1268.74 406.78 1270.98 407.15 1272.83 407.89C1274.68 408.63 1276.2 409.68 1277.39 411.03C1278.58 412.39 1279.59 414.05 1280.41 416.02H1281.15L1285.34 408.26H1298.77L1295.81 424.53C1295.48 426.58 1295.05 429.03 1294.52 431.86C1293.98 434.69 1293.45 437.57 1292.92 440.49C1292.38 443.41 1291.89 446.16 1291.44 448.75C1290.99 451.34 1290.64 453.5 1290.39 455.22C1290.14 456.95 1290.02 457.97 1290.02 458.3C1290.02 459.29 1290.27 460.03 1290.76 460.52C1291.25 461.01 1291.91 461.26 1292.73 461.26H1296.06L1294.09 472.72C1292.77 473.21 1291.3 473.66 1289.65 474.08C1288.01 474.49 1286.36 474.7 1284.72 474.7C1282.5 474.7 1280.53 474.25 1278.8 473.34C1277.07 472.43 1275.84 470.96 1275.1 468.9C1274.85 468.33 1274.63 467.73 1274.42 467.11C1274.21 466.49 1274.07 465.78 1273.99 464.95L1273.37 464.83C1271.56 467.62 1269.24 469.97 1266.41 471.86C1263.58 473.75 1260.27 474.69 1256.49 474.69H1256.5ZM1264.39 458.91C1265.7 458.91 1266.9 458.6 1267.97 457.99C1269.04 457.37 1270.02 456.43 1270.93 455.16C1271.83 453.89 1272.59 452.33 1273.21 450.48C1273.83 448.63 1274.38 446.52 1274.87 444.13C1275.44 440.6 1275.9 437.89 1276.23 436C1276.56 434.11 1276.76 432.69 1276.85 431.75C1276.93 430.81 1276.97 430.05 1276.97 429.47C1276.97 427.83 1276.76 426.45 1276.35 425.34C1275.94 424.23 1275.28 423.39 1274.38 422.81C1273.47 422.24 1272.33 421.95 1270.93 421.95C1269.04 421.95 1267.44 422.46 1266.12 423.49C1264.8 424.52 1263.72 426.1 1262.85 428.24C1261.99 430.38 1261.23 433.09 1260.57 436.37C1259.91 439.99 1259.44 442.78 1259.15 444.75C1258.86 446.72 1258.66 448.18 1258.53 449.13C1258.41 450.08 1258.35 450.92 1258.35 451.66C1258.35 454.12 1258.82 455.95 1259.77 457.14C1260.71 458.33 1262.25 458.93 1264.39 458.93V458.91Z" fill="#9933FF"/>
<path d="M1299.39 473.21L1315.04 383.97H1332.91L1317.13 473.21H1299.38H1299.39Z" fill="#9933FF"/>
<path d="M1328.73 473.21L1340.19 408.25H1357.94L1346.48 473.21H1328.73ZM1341.55 399.14L1344.14 383.98H1362.01L1359.42 399.14H1341.55Z" fill="#9933FF"/>
<path d="M1358.06 473.21L1369.4 408.25H1384.44V416.38H1385.06C1386.46 414.33 1388.02 412.58 1389.74 411.14C1391.47 409.7 1393.36 408.61 1395.41 407.87C1397.46 407.13 1399.64 406.76 1401.94 406.76C1405.15 406.76 1407.81 407.23 1409.95 408.18C1412.09 409.13 1413.69 410.56 1414.76 412.49C1415.83 414.42 1416.36 416.78 1416.36 419.58C1416.36 420.65 1416.28 421.74 1416.11 422.85C1415.94 423.96 1415.78 425.13 1415.62 426.36L1407.36 473.2H1389.49L1397.01 430.55C1397.17 429.98 1397.28 429.44 1397.32 428.95C1397.36 428.46 1397.38 427.96 1397.38 427.47C1397.38 426.4 1397.21 425.52 1396.89 424.82C1396.56 424.12 1396.07 423.57 1395.41 423.16C1394.75 422.75 1393.85 422.54 1392.7 422.54C1391.47 422.54 1390.28 422.87 1389.13 423.53C1387.98 424.19 1386.97 425.09 1386.11 426.24C1385.25 427.39 1384.51 428.79 1383.89 430.43C1383.27 432.07 1382.76 433.92 1382.35 435.98L1375.82 473.2H1358.07L1358.06 473.21Z" fill="#9933FF"/>
<path d="M1437.69 497.99C1433.33 497.99 1429.57 497.44 1426.41 496.33C1423.25 495.22 1420.82 493.54 1419.14 491.28C1417.46 489.02 1416.61 486.25 1416.61 482.96C1416.61 482.38 1416.67 481.5 1416.79 480.31C1416.91 479.12 1417.18 477.54 1417.59 475.56H1434.23C1434.15 476.13 1434.06 476.71 1433.98 477.29C1433.9 477.86 1433.86 478.36 1433.86 478.77C1433.86 479.84 1434.06 480.76 1434.48 481.54C1434.89 482.32 1435.53 482.9 1436.39 483.27C1437.25 483.64 1438.3 483.82 1439.53 483.82C1441.5 483.82 1443.15 483.33 1444.46 482.34C1445.77 481.35 1446.86 479.92 1447.73 478.03C1448.59 476.14 1449.27 473.84 1449.76 471.13C1450.01 469.65 1450.25 468.15 1450.5 466.63C1450.75 465.11 1451.03 463.65 1451.36 462.25H1450.62C1449.47 463.98 1448.11 465.48 1446.55 466.75C1444.99 468.02 1443.26 469.01 1441.37 469.71C1439.48 470.41 1437.43 470.76 1435.21 470.76C1431.84 470.76 1429.03 470.1 1426.77 468.79C1424.51 467.48 1422.81 465.44 1421.66 462.69C1420.51 459.94 1419.93 456.47 1419.93 452.27C1419.93 450.38 1420.05 448.31 1420.3 446.05C1420.55 443.79 1420.92 441.3 1421.41 438.59C1423.3 427.74 1426.28 419.73 1430.35 414.55C1434.42 409.37 1439.74 406.79 1446.31 406.79C1450.25 406.79 1453.38 407.65 1455.68 409.38C1457.98 411.11 1459.58 413.41 1460.49 416.28H1461.11L1463.82 408.27H1478.49L1467.64 469.65C1466.41 476.88 1464.45 482.55 1461.79 486.66C1459.12 490.77 1455.79 493.69 1451.81 495.41C1447.82 497.14 1443.12 498 1437.7 498L1437.69 497.99ZM1444.59 454.97C1445.99 454.97 1447.24 454.66 1448.35 454.05C1449.46 453.44 1450.44 452.53 1451.31 451.34C1452.17 450.15 1452.91 448.67 1453.53 446.9C1454.15 445.13 1454.62 443.06 1454.95 440.68C1455.44 438.21 1455.79 436.26 1456 434.83C1456.2 433.39 1456.35 432.24 1456.43 431.38C1456.51 430.52 1456.55 429.8 1456.55 429.22C1456.55 427.66 1456.32 426.34 1455.87 425.28C1455.42 424.21 1454.76 423.39 1453.9 422.82C1453.04 422.25 1451.91 421.96 1450.51 421.96C1448.7 421.96 1447.12 422.47 1445.76 423.5C1444.4 424.53 1443.3 426.05 1442.43 428.06C1441.57 430.07 1440.85 432.68 1440.27 435.89C1439.86 438.52 1439.51 440.6 1439.22 442.11C1438.93 443.63 1438.77 444.8 1438.73 445.62C1438.69 446.44 1438.67 447.18 1438.67 447.84C1438.67 449.4 1438.87 450.72 1439.29 451.78C1439.7 452.85 1440.36 453.65 1441.26 454.18C1442.16 454.72 1443.27 454.98 1444.59 454.98V454.97Z" fill="#9933FF"/>
<path fill-rule="evenodd" clip-rule="evenodd" d="M56.8305 109.819C79.972 95.415 106.704 88 133.85 88H361.63V215.86H138.87V193.86H339.63V110H133.85C110.698 110 88.0108 116.324 68.4531 128.499L68.4495 128.501C64.6575 130.859 60.3811 134.59 55.8426 139.426M56.8269 109.821C50.7807 113.583 45.0188 118.81 39.7989 124.373L39.7974 124.374C13.8639 152.019 0 188.714 0 226.38V280.72H339.63V326.47C339.63 350.163 332.819 373.337 319.508 392.576C316.943 396.278 311.522 400.817 303.729 405.632L303.727 405.633C281.48 419.384 255.554 426.34 229.15 426.34H22V343H222.46V321H0V448.34H229.15C259.385 448.34 289.359 440.377 315.291 424.348C323.718 419.143 332.357 412.662 337.592 405.104L337.595 405.099C353.622 381.94 361.63 354.336 361.63 326.47V258.72H22V226.38C22 194.066 33.8956 162.822 55.8411 139.427" fill="white"/>
</svg>
